<svg width="500.000000pt" height="499.000000pt" viewBox="0 0 500.000000 499.000000" xmlns="http://www.w3.org/2000/svg">
  <g transform="translate(0.000000,499.000000) scale(0.100000,-0.100000)" fill="#fdfdfd" stroke="none">
    <path d="M0 2495 c0 -2495 0 -2495 2500 -2495 2500 0 2500 0 2500 2495 0 2495
0 2495 -2500 2495 -2500 0 -2500 0 -2500 -2495z m2525 1954 c55 -20 55 -20 57
-1472 2 -1126 1 -2337 -2 -2419 0 -12 -48 -10 -71 2 -18 10 -19 25 -19 355 0
344 0 344 -155 344 -127 0 -170 4 -235 22 -86 23 -108 11 -295 -162 -77 -71
-194 -169 -201 -169 -4 0 -5 143 -4 318 5 498 8 462 -44 462 -63 0 -111 73
-125 190 -6 55 -6 55 -65 75 -107 37 -206 158 -206 253 0 26 -11 46 -51 90
-124 139 -201 399 -149 502 20 40 21 44 6 88 -91 266 254 975 573 1177 20 12
61 43 91 69 233 200 707 346 895 275z m575 -12 c194 -51 394 -143 522 -239 46
-35 108 -80 138 -100 231 -156 487 -556 575 -898 9 -37 29 -373 28 -458 -3
-130 -74 -329 -145 -404 -46 -50 -58 -70 -58 -103 0 -99 -132 -231 -251 -251
-37 -6 -37 -6 -41 -79 -5 -80 -24 -121 -106 -229 -26 -35 -54 -88 -67 -129
-71 -215 -198 -289 -502 -290 -153 -1 -153 -1 -153 -87 0 -120 -4 -130 -50
-130 -37 0 -37 0 -43 202 -5 157 1 1099 7 1104 0 1 30 -5 65 -12 64 -13 654
-3 738 12 33 6 33 6 35 288 3 281 3 281 43 281 40 0 40 0 43 -298 2 -299 2
-299 55 -292 112 15 165 91 112 161 -11 14 -14 52 -15 159 0 140 0 140 50 158
98 35 170 132 170 231 0 36 0 36 -370 36 -370 0 -370 0 -370 -22 0 -13 -3 -53
-7 -90 -6 -68 -6 -68 69 -68 75 0 75 0 82 -170 10 -227 20 -210 -120 -210
-114 0 -114 0 -114 39 0 39 0 39 80 46 80 7 80 7 80 64 0 128 -2 131 -93 131
-80 0 -80 0 -74 197 3 109 3 375 0 590 -6 393 -6 393 -74 393 -84 0 -81 8 -78
-203 3 -203 17 -187 -167 -187 -159 0 -154 -18 -154 563 0 247 0 247 -70 247
-70 0 -70 0 -70 -492 0 -491 0 -491 229 -485 228 6 228 6 236 -440 8 -510 15
-472 -87 -455 -48 7 -91 8 -123 2 -115 -20 -104 -47 -107 268 -3 277 -3 277
-75 280 -73 3 -73 3 -75 -1255 -3 -1258 -3 -1258 -40 -1267 -21 -5 -41 -7 -44
-3 -15 14 -8 3908 7 3918 27 19 275 3 379 -24z" />
    <path d="M2357 4384 c-4 -4 -7 -187 -7 -406 0 -398 0 -398 -165 -398 -165 0
-165 0 -165 195 0 195 0 195 -70 195 -80 0 -71 48 -74 -392 0 -130 -5 -240 -9
-245 -5 -4 -108 -9 -230 -9 -600 -3 -540 5 -566 -73 -33 -98 -64 -91 394 -91
403 0 403 0 410 -82 10 -134 3 -272 -15 -275 -8 -1 -40 -5 -71 -8 -67 -7 -76
-26 -63 -135 7 -60 7 -60 151 -60 145 0 145 0 143 368 -1 202 -2 384 -1 405 1
37 1 37 236 37 235 0 235 0 233 488 -3 487 -3 487 -63 490 -34 2 -64 0 -68 -4z" />
    <path d="M2187 4349 c-21 -5 -50 -15 -65 -23 -16 -8 -86 -34 -158 -58 -281
-96 -358 -209 -284 -423 34 -99 23 -123 -90 -201 -70 -48 -70 -48 -70 -141 0
-94 0 -94 133 -91 132 3 132 3 137 306 6 347 6 348 223 359 97 6 97 6 97 -201
0 -206 0 -206 75 -206 76 0 76 0 73 342 -3 380 2 355 -71 337z" />
    <path d="M1495 3964 c-116 -98 -173 -171 -210 -265 -14 -34 -28 -65 -33 -68
-33 -25 -112 -170 -112 -206 0 -13 24 -15 144 -15 144 0 144 0 148 111 3 104
4 112 28 131 112 90 133 117 126 172 -22 169 -34 188 -91 140z" />
    <path d="M2117 3323 c-4 -3 -7 -170 -7 -370 0 -364 0 -364 73 -361 72 3 72 3
69 218 -5 309 -1 340 47 340 48 0 51 -22 51 -341 0 -219 0 -219 70 -219 70 0
70 0 70 370 0 370 0 370 -183 370 -101 0 -187 -3 -190 -7z" />
    <path d="M1050 3052 c0 -68 87 -172 194 -230 49 -27 49 -27 42 -181 -6 -131
-10 -159 -27 -179 -24 -31 -24 -64 -1 -84 62 -55 190 -67 184 -18 -2 14 -5
145 -9 293 -5 267 -5 267 42 267 48 0 48 0 44 -122 -2 -68 -2 -198 -1 -289 2
-199 -53 -177 455 -181 401 -3 380 12 370 -253 -1 -27 0 -200 4 -382 5 -333 5
-333 74 -333 69 0 69 0 69 575 0 541 -1 575 -17 575 -10 1 -196 0 -415 0 -396
-1 -396 -1 -403 105 -15 217 -2 272 66 277 74 5 72 2 64 96 -9 94 -1 93 -457
91 -278 -1 -278 -1 -278 -27z" />
    <path d="M1024 2828 c3 -18 14 -89 25 -158 37 -242 91 -298 120 -125 29 176
27 185 -54 253 -85 71 -100 76 -91 30z" />
    <path d="M1256 2215 c25 -129 68 -140 564 -143 469 -3 440 -11 440 118 0 49 3
48 -518 52 -493 3 -493 3 -486 -27z" />
    <path d="M1520 1959 c0 -127 9 -129 384 -127 351 3 351 3 351 73 0 70 0 70
-367 73 -368 2 -368 2 -368 -19z" />
    <path d="M1730 1733 c-43 -5 -43 -8 -34 -340 6 -188 8 -213 23 -213 15 0 205
154 244 198 18 20 19 20 85 1 38 -11 98 -19 140 -19 73 0 73 0 70 73 -3 72 -3
72 -181 72 -179 0 -179 0 -173 34 7 47 1 45 184 51 167 5 167 5 167 75 0 70 0
70 -245 71 -135 0 -261 -1 -280 -3z" />
    <path d="M3035 4268 c-3 -46 -5 -198 -3 -338 3 -255 3 -255 77 -258 74 -3 74
-3 69 203 -6 205 -6 205 86 204 226 -1 230 -8 239 -345 4 -164 9 -305 12 -311
5 -14 261 -19 268 -5 2 4 1 46 -1 95 -4 88 -4 88 -73 144 -69 57 -69 57 -69
200 0 198 -19 249 -115 311 -67 44 -121 71 -162 81 -98 24 -160 46 -178 62
-27 24 -69 39 -110 39 -33 0 -33 0 -40 -82z" />
    <path d="M3731 3878 c-14 -127 -21 -112 99 -209 45 -37 45 -37 45 -148 0 -111
0 -111 138 -111 126 0 137 1 137 18 0 23 -51 123 -85 168 -14 18 -34 54 -45
79 -36 84 -231 315 -265 315 -8 0 -16 -41 -24 -112z" />
    <path d="M2800 3245 c0 -85 0 -85 115 -85 129 0 122 16 117 -265 -6 -281 2
-315 79 -315 69 0 69 0 69 375 0 375 0 375 -190 375 -190 0 -190 0 -190 -85z" />
    <path d="M3510 3240 c0 -80 0 -80 368 -78 418 3 385 -6 346 105 -19 53 -19 53
-366 53 -348 0 -348 0 -348 -80z" />
    <path d="M4237 2826 c-3 -8 -33 -34 -66 -57 -68 -48 -66 -43 -47 -154 31 -168
59 -200 103 -114 23 43 31 90 50 277 6 61 -22 95 -40 48z" />
    <path d="M3518 2243 c-478 -3 -478 -3 -478 -88 0 -85 0 -85 423 -85 274 0 436
4 462 11 94 26 184 173 103 167 -18 -2 -248 -4 -510 -5z" />
    <path d="M3040 1907 c0 -74 0 -74 357 -80 243 -4 360 -3 364 4 9 15 20 129 13
140 -3 5 -165 9 -370 9 -364 0 -364 0 -364 -73z" />
    <path d="M3040 1665 c0 -75 0 -75 283 -73 282 3 282 3 285 69 3 80 11 79 -335
79 -233 0 -233 0 -233 -75z" />
    <path d="M3040 1428 c0 -81 0 -81 180 -75 198 6 233 15 303 77 86 75 71 80
-223 80 -260 0 -260 0 -260 -82z" />
  </g>
  <g transform="translate(0.000000,499.000000) scale(0.100000,-0.100000)" fill="#1f1f1f" stroke="none">
    <path d="M2260 4465 c-234 -41 -492 -154 -640 -281 -30 -26 -71 -57 -91 -69
-322 -204 -672 -931 -575 -1195 12 -31 11 -40 -6 -74 -53 -105 27 -379 151
-518 40 -44 51 -64 51 -90 0 -95 99 -216 206 -253 59 -20 59 -20 65 -75 14
-117 62 -190 125 -190 52 0 48 41 44 -467 -1 -201 1 -323 7 -323 11 0 131 98
218 179 180 167 205 181 281 160 54 -15 103 -20 227 -21 157 0 157 0 157 -344
0 -385 -4 -364 73 -364 45 0 42 -42 42 510 -4 3605 0 3387 -60 3409 -65 24
-158 26 -275 6z m218 -567 c2 -478 2 -478 -233 -478 -235 0 -235 0 -236 -37
-1 -21 -1 -203 1 -405 2 -368 2 -368 -132 -368 -135 0 -135 0 -142 54 -11 98
-3 114 63 121 31 3 63 7 71 8 18 3 26 158 15 295 -7 82 -7 82 -410 82 -222 0
-406 4 -409 8 -2 4 5 36 17 70 25 70 -43 62 564 66 122 0 225 5 230 9 4 5 9
117 9 250 3 437 -5 387 64 387 60 0 60 0 60 -195 0 -195 0 -195 175 -195 175
0 175 0 175 398 0 442 -4 414 65 410 50 -3 50 -3 53 -480z m-229 112 c2 -330
2 -330 -64 -330 -65 0 -65 0 -65 206 0 207 0 207 -107 201 -228 -10 -227 -9
-233 -359 -5 -303 -5 -303 -127 -306 -123 -3 -123 -3 -123 81 0 83 0 83 71
132 113 77 126 104 94 201 -72 227 -8 324 279 422 72 24 142 50 158 58 30 15
99 33 110 27 3 -1 7 -151 7 -333z m-691 -92 c27 -147 30 -131 -30 -186 -29
-28 -64 -59 -78 -70 -24 -19 -25 -27 -28 -131 -4 -111 -4 -111 -138 -111 -74
0 -134 2 -134 5 0 27 85 175 112 196 5 3 19 34 33 68 37 94 94 167 210 265 40
34 40 35 53 -36z m922 -958 c0 -360 0 -360 -60 -360 -60 0 -60 0 -60 219 0
334 -2 343 -64 339 -51 -3 -51 -3 -51 -278 0 -275 0 -275 -62 -278 -63 -3 -63
-3 -63 351 0 194 3 357 7 360 3 4 84 7 180 7 173 0 173 0 173 -360z m-799 104
c86 -6 86 -6 93 -77 8 -83 10 -80 -63 -85 -65 -5 -71 -22 -71 -187 0 -231 -29
-215 409 -215 218 0 404 0 414 0 16 0 17 -34 17 -565 0 -565 0 -565 -59 -565
-59 0 -59 0 -64 328 -3 180 -4 352 -4 382 7 275 33 256 -370 258 -507 3 -453
-19 -455 181 -1 91 0 221 2 289 2 122 2 122 -55 122 -57 0 -57 0 -53 -277 3
-153 7 -285 9 -293 7 -26 -79 -24 -125 2 -57 33 -65 51 -39 86 20 27 23 48 29
194 7 163 7 163 -42 190 -99 54 -194 162 -194 220 0 17 435 25 621 12z m-509
-397 c-13 -266 -72 -259 -113 13 -10 69 -21 136 -25 149 -6 20 6 14 67 -38 74
-62 74 -62 71 -124z m1067 -451 c10 -11 11 -29 6 -76 -7 -61 -7 -61 -424 -58
-480 3 -518 12 -550 124 -9 33 935 42 968 10z m6 -311 c0 -60 0 -60 -341 -63
-359 -2 -374 2 -374 117 0 8 89 11 358 9 357 -3 357 -3 357 -63z m0 -240 c0
-60 0 -60 -167 -65 -186 -6 -179 -3 -185 -62 -5 -43 -5 -43 173 -43 179 0 179
0 181 -62 2 -73 -47 -84 -195 -42 -74 21 -74 21 -116 -19 -52 -51 -209 -181
-217 -182 -7 0 -20 389 -16 475 3 64 -2 63 307 61 235 -1 235 -1 235 -61z" />
    <path d="M2711 4471 c-13 -8 -19 -2132 -12 -3743 1 -217 2 -220 85 -188 26 10
26 10 26 1265 0 1256 0 1256 63 1253 62 -3 62 -3 65 -282 2 -279 2 -279 80
-271 91 10 97 10 183 0 88 -10 82 -47 74 470 -8 455 -8 455 -236 448 -229 -6
-229 -6 -229 475 0 482 0 482 60 482 60 0 60 0 60 -247 0 -584 -6 -563 164
-563 197 0 182 -15 177 184 -4 210 -5 206 68 206 58 0 58 0 64 -384 3 -211 3
-476 0 -590 -6 -206 -6 -206 74 -206 90 0 93 -4 93 -121 0 -46 0 -46 -64 -53
-35 -3 -71 -4 -80 0 -14 5 -16 -2 -16 -50 0 -56 0 -56 124 -56 152 0 140 -19
131 221 -8 179 -8 179 -83 179 -75 0 -75 0 -68 53 3 28 6 64 6 80 0 27 0 27
360 27 360 0 360 0 360 -26 0 -88 -77 -188 -170 -221 -50 -18 -50 -18 -50
-168 1 -116 4 -154 15 -169 46 -61 -1 -124 -102 -140 -43 -6 -43 -6 -45 291
-3 298 -3 298 -53 298 -50 0 -50 0 -53 -281 -2 -282 -2 -282 -35 -288 -91 -17
-658 -25 -729 -10 -39 8 -72 13 -73 12 -7 -8 -14 -923 -9 -1111 7 -217 7 -217
54 -217 57 0 60 5 60 130 0 85 0 85 153 86 305 3 431 76 502 291 13 41 41 94
67 129 82 108 101 149 106 229 4 73 4 73 41 79 119 20 251 152 251 251 0 33
12 53 58 103 73 78 143 277 145 415 2 93 -19 429 -28 467 -88 342 -344 742
-575 898 -30 20 -92 65 -138 100 -128 96 -328 188 -522 239 -103 27 -371 44
-399 24z m416 -142 c15 -6 37 -18 48 -28 18 -16 80 -38 178 -62 41 -10 95 -37
162 -81 96 -62 115 -113 115 -311 0 -143 0 -143 69 -200 69 -57 69 -57 73
-138 4 -99 17 -89 -124 -89 -143 0 -126 -41 -135 324 -9 340 -12 344 -250 345
-102 1 -102 1 -96 -205 6 -205 6 -205 -58 -202 -64 3 -64 3 -67 248 -5 412 -1
432 85 399z m732 -453 c61 -65 130 -162 151 -211 11 -25 31 -60 44 -78 29 -39
71 -114 80 -144 7 -23 7 -23 -121 -23 -128 0 -128 0 -128 111 0 111 0 111 -45
148 -116 94 -111 84 -98 199 13 114 10 114 117 -2z m-689 -921 c0 -365 0 -365
-60 -365 -69 0 -63 -25 -65 265 -2 349 11 315 -120 315 -115 0 -115 0 -115 75
0 75 0 75 180 75 180 0 180 0 180 -365z m1043 302 c10 -28 19 -59 20 -67 2
-13 -45 -15 -355 -18 -358 -2 -358 -2 -358 68 0 70 0 70 338 70 337 0 337 0
355 -53z m53 -484 c-4 -32 -11 -94 -16 -137 -9 -79 -46 -174 -66 -168 -17 5
-75 235 -62 247 2 2 31 24 66 49 34 25 62 50 62 56 0 5 5 10 11 10 8 0 10 -17
5 -57z m-216 -553 c0 -32 -89 -116 -135 -129 -26 -7 -185 -11 -452 -11 -413 0
-413 0 -413 75 0 75 0 75 478 78 262 1 487 3 500 5 16 1 22 -3 22 -18z m-286
-258 c5 -9 -8 -119 -15 -126 -2 -3 -160 -2 -352 1 -347 6 -347 6 -347 70 0 63
0 63 354 63 195 0 357 -4 360 -8z m-216 -239 c53 -6 53 -6 50 -62 -3 -56 -3
-56 -275 -59 -273 -2 -273 -2 -273 63 0 65 0 65 223 65 122 0 246 -3 275 -7z
m2 -237 c0 -20 -66 -76 -117 -98 -34 -15 -77 -20 -213 -25 -170 -6 -170 -6
-170 65 0 72 0 72 250 72 207 0 250 -2 250 -14z" />
  </g>
</svg>